<svg width="20" height="20" viewBox="0 0 20 20" fill="none" xmlns="http://www.w3.org/2000/svg">
<path fill-rule="evenodd" clip-rule="evenodd" d="M5 2H15C16.6569 2 18 3.34315 18 5V15C18 16.6569 16.6569 18 15 18H5C3.34315 18 2 16.6569 2 15V5C2 3.34315 3.34315 2 5 2Z" fill="#3DD598"/>
<path d="M7.35974 9.2801C6.9667 8.89211 6.33354 8.89621 5.94556 9.28925C5.55757 9.6823 5.56167 10.3155 5.95471 10.7034L8.49567 13.2117C8.91369 13.6243 9.59566 13.5895 9.9695 13.1365L14.0952 8.13648C14.4467 7.71049 14.3863 7.08021 13.9603 6.72871C13.5344 6.37721 12.9041 6.43759 12.5526 6.86358L9.12266 11.0203L7.35974 9.2801Z" fill="white"/>
</svg>
