<svg width="30" height="30" viewBox="0 0 30 30" fill="none" xmlns="http://www.w3.org/2000/svg">
<rect width="30" height="30" rx="15" fill="white"/>
<path fill-rule="evenodd" clip-rule="evenodd" d="M10.5088 20.0011C10.3391 19.7136 10.2933 19.3696 10.3818 19.0477C10.4704 18.7258 10.6858 18.4537 10.9787 18.2935L19.3169 13.606C19.9293 13.2603 20.7055 13.4628 21.0709 14.0636C21.2406 14.3512 21.2864 14.6953 21.1979 15.0172C21.1093 15.3392 20.8939 15.6114 20.601 15.7717L12.2616 20.4583C12.0659 20.5684 11.8452 20.6262 11.6207 20.6261C11.1658 20.6284 10.7433 20.3909 10.5088 20.0011ZM9.546 15.3134C9.37637 15.0259 9.33062 14.682 9.41917 14.3601C9.50773 14.0382 9.72303 13.7661 10.0159 13.6058L18.3545 8.91874C18.9666 8.5728 19.7428 8.77516 20.108 9.37594C20.2778 9.66346 20.3236 10.0076 20.235 10.3295C20.1465 10.6515 19.9311 10.9237 19.6382 11.084L11.2999 15.771C11.1044 15.8809 10.8838 15.9385 10.6595 15.9384C10.204 15.9409 9.78087 15.7033 9.546 15.313V15.3134Z" fill="#384455"/>
</svg>
