<svg xmlns="http://www.w3.org/2000/svg" width="16" height="18" viewBox="0 0 16 18" fill="none">
  <path d="M1 4.49902H2.5H14.5" stroke="white" stroke-width="1.5" stroke-linecap="round" stroke-linejoin="round"/>
  <path d="M13 4.5V15C13 15.3978 12.842 15.7794 12.5607 16.0607C12.2794 16.342 11.8978 16.5 11.5 16.5H4C3.60218 16.5 3.22064 16.342 2.93934 16.0607C2.65804 15.7794 2.5 15.3978 2.5 15V4.5M4.75 4.5V3C4.75 2.60218 4.90804 2.22064 5.18934 1.93934C5.47064 1.65804 5.85218 1.5 6.25 1.5H9.25C9.64782 1.5 10.0294 1.65804 10.3107 1.93934C10.592 2.22064 10.75 2.60218 10.75 3V4.5" stroke="white" stroke-width="1.5" stroke-linecap="round" stroke-linejoin="round"/>
</svg>