 <svg
                    width="20"
                    height="21"
                    viewBox="0 0 20 21"
                    fill="none"
                    xmlns="http://www.w3.org/2000/svg"
                  >
                    <circle cx="10" cy="10.3955" r="10" fill="white" />
                    <path
                      d="M7.31092 6.39965C6.92633 6.39064 6.54154 6.40162 6.15811 6.43267C5.85899 6.42648 5.57028 6.54244 5.35866 6.75399C5.14703 6.96545 5.03081 7.25411 5.03684 7.55319C5.00576 7.93661 4.99474 8.32144 5.00379 8.70599V11.3958C5.00379 12.2604 4.94999 12.0034 5.2478 12.4438C5.406 12.6587 5.63916 12.8063 5.90106 12.8573C6.11623 12.8999 6.33497 12.9218 6.55431 12.9229C6.55892 13.0612 6.56353 13.198 6.57698 13.3159C6.57075 13.615 6.68678 13.9038 6.89826 14.1154C7.10974 14.3271 7.39839 14.4432 7.6975 14.4372C7.90192 14.4603 8.14823 14.4656 8.4203 14.468C8.43473 14.4692 8.44923 14.4697 8.46371 14.4693L12.6906 14.4692C13.0752 14.4782 13.46 14.4672 13.8434 14.4362C14.1425 14.4422 14.4312 14.326 14.6427 14.1144C14.8541 13.9028 14.9702 13.614 14.9639 13.3149C14.9949 12.9315 15.006 12.5468 14.997 12.1621V11.3936C14.9971 11.3783 14.9964 11.363 14.9947 11.3479C14.9924 11.0766 14.987 10.8307 14.9639 10.6267C14.9701 10.3276 14.854 10.0389 14.6425 9.82726C14.4311 9.61571 14.1425 9.49947 13.8434 9.50538C13.7247 9.49197 13.5871 9.48775 13.448 9.48305C13.4556 9.45106 13.4591 9.41832 13.4584 9.38549C13.4658 9.07843 13.4426 8.77138 13.3892 8.46892C13.342 8.20455 13.1977 7.96748 12.9846 7.80415C12.5446 7.49681 12.7963 7.55104 11.9225 7.55104H10.9026C10.5235 7.57252 10.1438 7.52167 9.78367 7.40112C9.63149 7.3362 9.49899 7.23254 9.39941 7.10035C9.22044 6.88833 8.99525 6.72021 8.74115 6.60886C8.29198 6.44843 7.8158 6.37732 7.33935 6.39946V6.39946H7.31245L7.31092 6.39965ZM7.31045 7.16811C7.69424 7.14654 8.07865 7.19738 8.44365 7.31794C8.59707 7.38239 8.73071 7.48633 8.83099 7.61917C9.00846 7.83063 9.23189 7.99875 9.48424 8.11067C9.93847 8.27381 10.4206 8.34511 10.9026 8.32044H11.9216C12.7947 8.32044 12.4627 8.37889 12.5422 8.43574C12.5806 8.46379 12.6045 8.48415 12.6367 8.63406C12.6762 8.88577 12.6936 9.14047 12.6886 9.39527C12.6886 9.42192 12.6913 9.44837 12.6967 9.47445H12.4385C12.0593 9.49603 11.6796 9.44518 11.3195 9.32472C11.1672 9.25962 11.0347 9.15567 10.9352 9.02339C10.7563 8.81137 10.5311 8.64316 10.277 8.5318C9.82735 8.37166 9.35083 8.30055 8.87403 8.3225H8.84713C8.46254 8.31359 8.07776 8.32475 7.69434 8.3559C7.39523 8.34971 7.1065 8.46566 6.89487 8.67722C6.68324 8.88867 6.56702 9.17734 6.57305 9.47642C6.54197 9.85984 6.53094 10.2446 6.54 10.6292V12.1544C6.38245 12.1516 6.22534 12.1368 6.07005 12.1101C5.92749 12.0775 5.91135 12.0572 5.8833 12.0156C5.8272 11.9326 5.77148 12.262 5.77148 11.3977V8.70789C5.77148 8.22869 5.77379 7.87519 5.79992 7.64235C5.82605 7.4095 5.87101 7.33032 5.90137 7.29992C5.93173 7.26953 6.01011 7.22572 6.24298 7.19964C6.47586 7.17356 6.83166 7.16811 7.31045 7.16811V7.16811ZM8.84907 9.0895C9.23284 9.06802 9.61725 9.11877 9.98226 9.23932C10.1356 9.30358 10.2693 9.40744 10.3696 9.54009C10.547 9.75164 10.7705 9.91976 11.0229 10.0317C11.477 10.1952 11.9591 10.2666 12.4412 10.242L12.6917 10.2419C13.1709 10.2419 13.5248 10.2443 13.7573 10.2703C13.9898 10.2964 14.0693 10.3415 14.0997 10.3718C14.13 10.4021 14.1742 10.4805 14.2003 10.7133C14.2265 10.9462 14.2288 11.3001 14.2288 11.7789V12.1631C14.2288 12.642 14.2265 12.9966 14.2003 13.2291C14.1742 13.4615 14.13 13.5403 14.0997 13.5703C14.0693 13.6002 13.9901 13.6471 13.7573 13.6717C13.5244 13.6963 13.1709 13.6997 12.6917 13.6997H8.84907C8.36989 13.6997 8.01598 13.6974 7.7835 13.6717C7.55101 13.646 7.47147 13.6006 7.44112 13.5703C7.41077 13.54 7.36657 13.4612 7.34045 13.2291C7.31432 12.997 7.31201 12.6421 7.31201 12.1636V10.6266C7.31201 10.1477 7.31432 9.79348 7.34045 9.56139C7.36657 9.32929 7.41154 9.24936 7.4419 9.21859C7.47226 9.18782 7.55103 9.14438 7.78351 9.1183C8.01599 9.09222 8.37027 9.0895 8.84907 9.0895V9.0895Z"
                      fill="#FF6812"
                      fill-rule="evenodd"
                      clip-rule="evenodd"
                    />
                  </svg>