
<svg width="36" height="36" viewBox="0 0 36 36" fill="none" xmlns="http://www.w3.org/2000/svg">
<circle cx="18" cy="18" r="18" fill="#FF6812"/>
<path fill-rule="evenodd" clip-rule="evenodd" d="M14.4092 23.3964C12.8025 23.4512 11.4535 22.1973 11.3906 20.5909L11.3906 17.6706C11.453 16.064 12.8021 14.8095 14.4092 14.864L15.0092 14.8637C15.2236 14.8637 15.4217 14.978 15.5288 15.1637C15.636 15.3494 15.636 15.578 15.5288 15.7637C15.4217 15.9494 15.2236 16.0637 15.0092 16.0637H14.4092C13.488 16.0321 12.7146 16.751 12.6788 17.6721V20.5927C12.7154 21.5132 13.4884 22.2316 14.4092 22.2005H21.5804C22.5015 22.2316 23.2745 21.5126 23.3102 20.5918V17.6651C23.2744 16.7481 22.5047 16.0323 21.5877 16.0631H20.9804C20.7661 16.0631 20.568 15.9488 20.4608 15.7631C20.3536 15.5774 20.3536 15.3488 20.4608 15.1631C20.568 14.9774 20.7661 14.8631 20.9804 14.8631H21.5877C23.1906 14.8095 24.536 16.0608 24.5984 17.6633L24.5985 20.5901C24.5362 22.1964 23.1872 23.4506 21.5804 23.3955L14.4092 23.3964ZM17.3495 19.2048V12.8447L16.5725 13.5707C16.3113 13.798 15.9224 13.798 15.6611 13.5707C15.5411 13.4629 15.4726 13.3091 15.4726 13.1476C15.4726 12.9862 15.5411 12.8324 15.6611 12.7246L17.5397 10.9709C17.8052 10.7532 18.1875 10.7532 18.4529 10.9709L20.3315 12.7246C20.4514 12.8327 20.5198 12.9862 20.5198 13.1476C20.5198 13.3091 20.4514 13.4626 20.3315 13.5707C20.0725 13.8045 19.6785 13.8045 19.4195 13.5707L18.6395 12.8447V19.2048H17.3495Z" fill="white"/>
</svg>
