 <svg
                    width="48"
                    height="48"
                    viewBox="0 0 48 48"
                    fill="none"
                    xmlns="http://www.w3.org/2000/svg"
                  >
                    <circle
                      cx="24"
                      cy="24"
                      r="24"
                      fill="#00C49A"
                      fill-opacity="0.1"
                    />
                    <g clip-path="url(#clip0_1897_1286)">
                      <path
                        d="M33.444 16.833H15.5551C15.2162 16.833 14.8912 16.9676 14.6516 17.2073C14.412 17.4469 14.2773 17.7719 14.2773 18.1108V30.8886C14.2773 31.2275 14.412 31.5525 14.6516 31.7921C14.8912 32.0317 15.2162 32.1663 15.5551 32.1663H33.444C33.7829 32.1663 34.1079 32.0317 34.3475 31.7921C34.5872 31.5525 34.7218 31.2275 34.7218 30.8886V18.1108C34.7218 17.7719 34.5872 17.4469 34.3475 17.2073C34.1079 16.9676 33.7829 16.833 33.444 16.833ZM33.444 30.8886H15.5551V18.1108H33.444V30.8886Z"
                        fill="#00C49A"
                      />
                      <path
                        d="M18.7502 21.9448H30.2502C30.4197 21.9448 30.5822 21.8775 30.702 21.7576C30.8218 21.6378 30.8891 21.4753 30.8891 21.3059C30.8891 21.1364 30.8218 20.9739 30.702 20.8541C30.5822 20.7343 30.4197 20.667 30.2502 20.667H18.7502C18.5808 20.667 18.4183 20.7343 18.2985 20.8541C18.1786 20.9739 18.1113 21.1364 18.1113 21.3059C18.1113 21.4753 18.1786 21.6378 18.2985 21.7576C18.4183 21.8775 18.5808 21.9448 18.7502 21.9448Z"
                        fill="#00C49A"
                      />
                      <path
                        d="M18.7502 24.5004H30.2502C30.4197 24.5004 30.5822 24.4331 30.702 24.3133C30.8218 24.1935 30.8891 24.031 30.8891 23.8615C30.8891 23.6921 30.8218 23.5296 30.702 23.4098C30.5822 23.29 30.4197 23.2227 30.2502 23.2227H18.7502C18.5808 23.2227 18.4183 23.29 18.2985 23.4098C18.1786 23.5296 18.1113 23.6921 18.1113 23.8615C18.1113 24.031 18.1786 24.1935 18.2985 24.3133C18.4183 24.4331 18.5808 24.5004 18.7502 24.5004Z"
                        fill="#00C49A"
                      />
                      <path
                        d="M18.7502 27.0551H25.1391C25.3085 27.0551 25.4711 26.9878 25.5909 26.868C25.7107 26.7482 25.778 26.5857 25.778 26.4162C25.778 26.2468 25.7107 26.0843 25.5909 25.9645C25.4711 25.8447 25.3085 25.7773 25.1391 25.7773H18.7502C18.5808 25.7773 18.4183 25.8447 18.2985 25.9645C18.1786 26.0843 18.1113 26.2468 18.1113 26.4162C18.1113 26.5857 18.1786 26.7482 18.2985 26.868C18.4183 26.9878 18.5808 27.0551 18.7502 27.0551Z"
                        fill="#00C49A"
                      />
                    </g>
                    <defs>
                      <clipPath id="clip0_1897_1286">
                        <rect
                          width="23"
                          height="23"
                          fill="white"
                          transform="translate(13 13)"
                        />
                      </clipPath>
                    </defs>
                  </svg>