<svg xmlns="http://www.w3.org/2000/svg" width="14" height="19" viewBox="0 0 14 19" fill="none">
  <path d="M10.5737 2.58196C9.60324 1.58321 8.41202 0.826082 7.09577 0.371443C7.02734 0.352004 6.95474 0.352793 6.88675 0.373714C6.81876 0.394634 6.75828 0.434792 6.71261 0.489337C6.66767 0.54434 6.63959 0.611161 6.63175 0.681755C6.6239 0.752348 6.63663 0.823704 6.6684 0.887231C7.44822 2.3295 7.6661 4.00953 7.27998 5.60301C7.27361 5.62772 7.25939 5.6497 7.23946 5.66565C7.21953 5.68159 7.19496 5.69064 7.16945 5.69143C7.10314 5.69143 7.0884 5.69143 7.0884 5.63985C6.52577 4.27655 5.57846 3.10651 4.36209 2.27249C4.30008 2.23159 4.22714 2.2104 4.15287 2.21169C4.07859 2.21298 4.00644 2.2367 3.94588 2.27973C3.88532 2.32275 3.83918 2.38308 3.81352 2.4528C3.78786 2.52252 3.78388 2.59836 3.80209 2.67038C4.23683 4.37248 3.3821 5.39669 2.32841 6.69353C1.27473 7.99037 0 9.50826 0 11.9546C0.0258836 13.5177 0.575961 15.0269 1.56202 16.2401C2.54808 17.4533 3.91299 18.3003 5.43788 18.6451C5.12703 18.4257 4.87274 18.1356 4.69595 17.7987C4.51916 17.4617 4.42494 17.0876 4.42104 16.7072C4.42104 12.7725 6.99998 11.7925 6.99998 11.7925C7.51577 14.3714 9.57892 14.9609 9.57892 16.7072C9.57523 17.0832 9.4833 17.4532 9.31052 17.7872C9.13775 18.1212 8.88896 18.41 8.58419 18.6303C9.6652 18.3958 10.6753 17.9085 11.5315 17.2082C12.3068 16.5655 12.9302 15.7591 13.357 14.847C13.7838 13.9348 14.0034 12.9395 14 11.9325C14 7.003 12.1358 4.12933 10.5737 2.58196Z" fill="white"/>
</svg>