<svg xmlns="http://www.w3.org/2000/svg" width="15" height="14" viewBox="0 0 15 14" fill="none">
  <path d="M2.3 0.5H12.7C13.0448 0.5 13.3754 0.652182 13.6192 0.923068C13.863 1.19395 14 1.56135 14 1.94444V6.27778C14 8.19323 13.3152 10.0302 12.0962 11.3847C10.8772 12.7391 9.22391 13.5 7.5 13.5C6.64641 13.5 5.80117 13.3132 5.01256 12.9502C4.22394 12.5873 3.50739 12.0553 2.90381 11.3847C1.68482 10.0302 1 8.19323 1 6.27778V1.94444C1 1.56135 1.13696 1.19395 1.38076 0.923068C1.62456 0.652182 1.95522 0.5 2.3 0.5V0.5Z" stroke="#353537" stroke-linecap="round" stroke-linejoin="round"/>
  <path d="M4.91016 5.55664L7.51016 8.44553L10.1102 5.55664" stroke="#353537" stroke-linecap="round" stroke-linejoin="round"/>
</svg>