<svg xmlns="http://www.w3.org/2000/svg" width="18" height="18" viewBox="0 0 18 18" fill="none">
  <path fill-rule="evenodd" clip-rule="evenodd" d="M4.70325 1.584C4.09575 1.6635 3.77475 1.80975 3.54525 2.034C3.3165 2.259 3.16725 2.574 3.0855 3.16875C3.0015 3.7815 3 4.593 3 5.75625V12.1838C3.29678 11.9806 3.62635 11.8302 3.97425 11.739C4.37025 11.6347 4.83225 11.6347 5.5095 11.6355H15V5.757C15 4.593 14.9985 3.7815 14.9145 3.16875C14.8327 2.574 14.6835 2.259 14.4548 2.034C14.2253 1.80975 13.9043 1.6635 13.2968 1.584C12.6713 1.5015 11.8433 1.5 10.6552 1.5H7.34475C6.15675 1.5 5.32875 1.5015 4.70325 1.584ZM5.06925 4.94625C5.06925 4.61025 5.34675 4.338 5.6895 4.338H12.3105C12.4732 4.3366 12.6299 4.39975 12.7461 4.51361C12.8624 4.62748 12.9288 4.78278 12.9307 4.9455C12.929 5.10835 12.8627 5.26384 12.7464 5.37787C12.6301 5.4919 12.4734 5.55515 12.3105 5.55375H5.6895C5.52678 5.55515 5.37013 5.492 5.25387 5.37814C5.13762 5.26427 5.07123 5.10897 5.06925 4.94625ZM5.6895 7.176C5.52678 7.1746 5.37013 7.23775 5.25387 7.35161C5.13762 7.46548 5.07123 7.62078 5.06925 7.7835C5.06925 8.1195 5.34675 8.39175 5.6895 8.39175H9.82725C9.9901 8.39335 10.1469 8.33029 10.2634 8.2164C10.3798 8.10251 10.4463 7.9471 10.4482 7.78425C10.4465 7.62127 10.3801 7.46566 10.2636 7.35161C10.1472 7.23756 9.99023 7.1744 9.82725 7.176H5.6895Z" fill="#00C49A"/>
  <path d="M5.60569 12.8516H15.0009C14.9987 13.6991 14.9852 14.3321 14.9162 14.8316C14.8344 15.4263 14.6852 15.7413 14.4564 15.9663C14.2269 16.1906 13.9059 16.3368 13.2984 16.4163C12.6729 16.4988 11.8449 16.5003 10.6569 16.5003H7.34569C6.15769 16.5003 5.32969 16.4988 4.70419 16.4171C4.09669 16.3368 3.77569 16.1906 3.54619 15.9663C3.31744 15.7413 3.16819 15.4263 3.08644 14.8316C3.05569 14.6066 3.03544 14.3538 3.02344 14.0666C3.12646 13.7858 3.2961 13.5342 3.51779 13.3334C3.73948 13.1326 4.00659 12.9886 4.29619 12.9138C4.51369 12.8568 4.79644 12.8516 5.60569 12.8516Z" fill="#00C49A"/>
</svg>