<svg xmlns="http://www.w3.org/2000/svg" width="57" height="26" viewBox="0 0 57 26" fill="none">
  <path d="M11.1133 20.5254H17.1133" stroke="#FF6812" stroke-linecap="round" stroke-linejoin="round"/>
  <path d="M14.1133 8.83854C14.3785 8.55675 14.7382 8.39844 15.1133 8.39844C15.299 8.39844 15.4829 8.4373 15.6545 8.51282C15.8261 8.58833 15.982 8.69901 16.1133 8.83854C16.2446 8.97807 16.3488 9.14371 16.4198 9.32602C16.4909 9.50832 16.5275 9.70371 16.5275 9.90104C16.5275 10.0984 16.4909 10.2938 16.4198 10.4761C16.3488 10.6584 16.2446 10.824 16.1133 10.9635L7.77995 19.8177L5.11328 20.526L5.77995 17.6927L14.1133 8.83854Z" stroke="#FF6812" stroke-linecap="round" stroke-linejoin="round"/>
  <path d="M43.9766 9.85547H45.3099H55.9766" stroke="#FF6812" stroke-linecap="round" stroke-linejoin="round"/>
  <path d="M54.6419 9.85612V19.1895C54.6419 19.5431 54.5015 19.8822 54.2514 20.1323C54.0014 20.3823 53.6622 20.5228 53.3086 20.5228H46.6419C46.2883 20.5228 45.9492 20.3823 45.6991 20.1323C45.4491 19.8822 45.3086 19.5431 45.3086 19.1895V9.85612M47.3086 9.85612V8.52279C47.3086 8.16916 47.4491 7.83003 47.6991 7.57998C47.9492 7.32993 48.2883 7.18945 48.6419 7.18945H51.3086C51.6622 7.18945 52.0014 7.32993 52.2514 7.57998C52.5015 7.83003 52.6419 8.16916 52.6419 8.52279V9.85612" stroke="#FF6812" stroke-linecap="round" stroke-linejoin="round"/>
  <line x1="31.25" y1="23.5117" x2="31.25" y2="4.48542" stroke="#DDDDDD" stroke-width="0.5"/>
</svg>