<svg xmlns="http://www.w3.org/2000/svg" width="25" height="25" viewBox="0 0 25 25" fill="none">
  <circle cx="12.8594" cy="12.8926" r="12" fill="#384455"/>
  <path fill-rule="evenodd" clip-rule="evenodd" d="M9.1797 18.0311C7.68255 18.0871 6.42178 16.9223 6.35942 15.4254L6.35938 12.7162C6.42178 11.2193 7.68255 10.0544 9.17974 10.1105H9.74128C9.95029 10.094 10.1509 10.1962 10.2604 10.3749C10.37 10.5537 10.37 10.7788 10.2604 10.9575C10.1509 11.1363 9.95029 11.2385 9.74128 11.222H9.1797C8.32252 11.1895 7.60018 11.8557 7.56343 12.7127L7.56348 15.4295C7.60056 16.2864 8.32252 16.9526 9.17966 16.9209L15.8771 16.9209C16.7342 16.9526 17.4562 16.2864 17.4933 15.4295V12.7148C17.4566 11.8611 16.7372 11.1974 15.8832 11.2295H15.3161C15.1071 11.246 14.9066 11.1438 14.797 10.965C14.6874 10.7863 14.6874 10.5612 14.797 10.3825C14.9065 10.2037 15.1071 10.1015 15.3161 10.118H15.8832C17.3747 10.0638 18.6304 11.2237 18.6947 12.7148V15.4295C18.6323 16.9264 17.3715 18.0912 15.8743 18.0352L9.1797 18.0311ZM11.9279 14.1426V8.24551L11.2024 8.91888C10.9576 9.12928 10.5957 9.12928 10.3508 8.91888C10.2385 8.81936 10.1742 8.67643 10.1742 8.52635C10.1742 8.37622 10.2385 8.23329 10.3508 8.13373L12.1055 6.50721C12.3539 6.30489 12.7102 6.30489 12.9586 6.50721L14.714 8.13373C14.8258 8.23363 14.8896 8.37643 14.8896 8.5263C14.8896 8.67618 14.8258 8.81898 14.714 8.91888C14.4716 9.13593 14.1047 9.13593 13.8624 8.91888L13.1355 8.24551V14.1426H11.9279Z" fill="white"/>
</svg>