<svg width="31" height="30" viewBox="0 0 31 30" fill="none" xmlns="http://www.w3.org/2000/svg">
<path fill-rule="evenodd" clip-rule="evenodd" d="M15.1758 15C16.8326 15 18.1758 13.6569 18.1758 12C18.1758 10.3431 16.8326 9 15.1758 9C13.5189 9 12.1758 10.3431 12.1758 12C12.1758 13.6569 13.5189 15 15.1758 15ZM15.1758 18C18.4895 18 21.1758 15.3137 21.1758 12C21.1758 8.68629 18.4895 6 15.1758 6C11.8621 6 9.17578 8.68629 9.17578 12C9.17578 15.3137 11.8621 18 15.1758 18Z" fill="#1A1D1F"/>
<path fill-rule="evenodd" clip-rule="evenodd" d="M25.014 26.3232C28.1765 23.5732 30.1758 19.5201 30.1758 15C30.1758 6.71573 23.4601 0 15.1758 0C6.89151 0 0.175781 6.71573 0.175781 15C0.175781 19.5201 2.17505 23.5731 5.33752 26.3232C7.97118 28.6135 11.4116 30 15.1758 30C18.8002 30 22.1243 28.7146 24.7172 26.5747C24.8172 26.4922 24.9162 26.4083 25.014 26.3232ZM15.5626 26.9939C15.4342 26.998 15.3052 27 15.1758 27C15.1628 27 15.1499 27 15.137 26.9999C15.0163 26.9996 14.8961 26.9974 14.7763 26.9935C12.7629 26.9276 10.8749 26.3658 9.23061 25.4261C10.6035 23.6448 12.7581 22.5 15.1758 22.5C17.5935 22.5 19.7481 23.6448 21.1209 25.4261C19.4732 26.3677 17.5808 26.93 15.5626 26.9939ZM23.5194 23.6246C21.6006 21.1172 18.577 19.5 15.1758 19.5C11.7745 19.5 8.75099 21.1172 6.83216 23.6246C4.57749 21.443 3.17578 18.3852 3.17578 15C3.17578 8.37258 8.54836 3 15.1758 3C21.8032 3 27.1758 8.37258 27.1758 15C27.1758 18.3852 25.7741 21.443 23.5194 23.6246Z" fill="#1A1D1F"/>
</svg>
